<?xml version="1.0" encoding="utf-8"?>
<!-- Generator: Adobe Illustrator 16.0.0, SVG Export Plug-In . SVG Version: 6.00 Build 0)  -->
<!DOCTYPE svg PUBLIC "-//W3C//DTD SVG 1.1//EN" "http://www.w3.org/Graphics/SVG/1.1/DTD/svg11.dtd">
<svg version="1.1" id="图层_1" xmlns="http://www.w3.org/2000/svg" xmlns:xlink="http://www.w3.org/1999/xlink" x="0px" y="0px"
	 width="3080px" height="500px" viewBox="0 0 3080 500" enable-background="new 0 0 3080 500" xml:space="preserve">
<g>
	<path fill="#273988" d="M305.125,322l95,14.375c-18.545,51.46-46.357,90.781-83.438,117.969
		c-37.085,27.188-80.522,40.781-130.313,40.781c-56.045,0-99.844-16.875-131.406-50.625S7.625,361.795,7.625,297.625
		c0-52.08,10.571-99.736,31.719-142.969c21.143-43.228,50.469-76.299,87.969-99.219c37.5-22.915,78.33-34.375,122.5-34.375
		c49.58,0,89.688,13.281,120.313,39.844s48.643,62.764,54.063,108.594l-90.313,8.75c-5-26.665-14.639-45.986-28.906-57.969
		c-14.272-11.978-33.281-17.969-57.031-17.969c-26.045,0-50.366,7.92-72.969,23.75c-22.607,15.835-40.679,40.576-54.219,74.219
		c-13.545,33.647-20.313,67.241-20.313,100.781c0,36.67,8.799,65,26.406,85c17.603,20,39.531,30,65.781,30
		c24.375,0,46.719-7.915,67.031-23.75C279.969,376.482,295.125,353.045,305.125,322z"/>
	<path fill="#273988" d="M751.375,282.313H574.188L531.375,487H437l95.938-458.125H627L590.125,205.75h177.188L804.5,28.875h94.063
		L802.938,487h-94.375L751.375,282.313z"/>
	<path fill="#273988" d="M1197.625,385.75h-181.563l-55,101.25h-96.875L1123.25,28.875h104.688L1302.313,487h-89.375
		L1197.625,385.75z M1186.063,309.5L1159.5,125.125L1048.875,309.5H1186.063z"/>
	<path fill="#273988" d="M1355.75,487l95.938-458.125h94.063L1450.125,487H1355.75z"/>
	<path fill="#273988" d="M1903.875,487h-87.813l-123.75-307.813L1627.938,487h-87.813l95.625-458.125h88.125l124.063,306.563
		L1912,28.875h87.5L1903.875,487z"/>
	<path fill="#273988" d="M1995.75,487l95.938-458.125h94.063L2090.125,487H1995.75z"/>
	<path fill="#273988" d="M2177.625,487l95.625-458.125h339.688L2597,105.438h-245.313L2329.813,209.5H2567l-15.938,76.563h-237.188
		l-28.75,124.375h266.563L2535.438,487H2177.625z"/>
	<path fill="#273988" d="M2680.75,487h-121.875l202.188-231.875l-113.75-226.25h98.438l44.688,85.938
		c1.455,3.125,11.665,24.272,30.625,63.438c1.25,2.085,2.603,4.897,4.063,8.438c25.415-31.04,46.768-56.455,64.063-76.25
		l72.188-81.563h118.438l-209.688,241.25L2982.938,487h-106.25l-34.375-69.063c-17.92-36.455-29.795-62.603-35.625-78.438
		c-8.125,12.295-29.063,37.71-62.813,76.25L2680.75,487z"/>
</g>
</svg>
